<svg width="60" height="60" viewBox="0 0 60 60" fill="none" xmlns="http://www.w3.org/2000/svg">
<path d="M30 0L30 14.52C21.4506 14.52 14.4 21.4506 14.4 30L0 30C0 13.4315 13.4315 0 30 0Z" fill="#00CCFF"/>
<path d="M29.9829 0L30 14.52C21.4506 14.52 14.4 21.4506 14.4 30L12.9774 27.0397C6.95799 14.5142 16.0861 0 29.9829 0Z" fill="url(#paint0_linear_180_10)"/>
<path d="M0 30C0 46.5685 13.4315 60 30 60L60 60C60 43.4315 46.5685 30 30 30L0 30Z" fill="#00CCFF"/>
<path d="M30 30L30 0L60 0C60 16.5685 46.5685 30 30 30Z" fill="#00CCFF"/>
<defs>
<linearGradient id="paint0_linear_180_10" x1="-5.34" y1="11.4" x2="31.74" y2="8.7" gradientUnits="userSpaceOnUse">
<stop offset="0.394326" stop-color="#1C1E1F"/>
<stop offset="0.930208" stop-color="#00CCFF"/>
</linearGradient>
</defs>
</svg>
